<?xml version="1.0" standalone="no"?>
<!DOCTYPE svg PUBLIC "-//W3C//DTD SVG 20010904//EN"
 "http://www.w3.org/TR/2001/REC-SVG-20010904/DTD/svg10.dtd">
<svg version="1.0" xmlns="http://www.w3.org/2000/svg"
 width="1347.000000pt" height="1347.000000pt" viewBox="0 0 1347.000000 1347.000000"
 preserveAspectRatio="xMidYMid meet">
<metadata>
Created by potrace 1.14, written by Peter Selinger 2001-2017
</metadata>
<g transform="translate(0.000000,1347.000000) scale(0.100000,-0.100000)"
fill="#000000" stroke="none">
<path d="M8069 13436 c-3 -3 -38 -8 -79 -12 -41 -3 -79 -10 -85 -14 -11 -8
-46 -19 -90 -26 -16 -3 -53 -17 -81 -30 -28 -13 -56 -24 -62 -24 -6 0 -23 -5
-39 -12 -15 -6 -30 -12 -33 -13 -3 -1 -12 -4 -20 -7 -8 -3 -44 -16 -80 -28
-36 -12 -114 -46 -175 -75 -60 -29 -132 -61 -160 -71 -27 -10 -52 -21 -55 -24
-3 -4 -24 -14 -47 -23 -24 -9 -69 -34 -100 -56 -32 -21 -92 -54 -133 -72 -41
-18 -99 -48 -129 -67 -30 -18 -64 -36 -75 -38 -12 -2 -26 -10 -32 -18 -5 -8
-23 -18 -40 -22 -24 -6 -52 -24 -119 -77 -5 -4 -44 -30 -85 -56 -41 -27 -84
-61 -94 -75 -10 -14 -22 -26 -27 -26 -14 0 -99 -61 -133 -96 -28 -29 -40 -34
-80 -34 -33 0 -48 5 -53 15 -7 20 -57 69 -74 73 -7 2 -17 9 -23 17 -16 20
-177 115 -187 110 -4 -3 -10 -2 -13 3 -5 8 -51 7 -106 -1 -32 -5 -52 -35 -39
-58 5 -10 8 -22 8 -26 -2 -9 8 -40 22 -65 17 -32 9 -38 -26 -21 -35 17 -74 14
-180 -12 -82 -20 -265 -23 -315 -5 -19 7 -94 0 -105 -10 -23 -19 -10 -61 26
-92 38 -32 35 -43 -7 -28 -91 35 -180 42 -301 25 -134 -19 -169 -29 -165 -46
2 -8 6 -24 8 -36 10 -52 30 -78 188 -236 122 -123 166 -173 166 -191 0 -29 31
-128 38 -121 9 9 32 -17 32 -35 0 -9 -15 -33 -33 -52 -27 -29 -39 -35 -70 -33
-20 2 -37 -1 -37 -5 0 -4 -14 -13 -32 -19 -17 -6 -39 -18 -47 -25 -9 -8 -25
-16 -36 -18 -17 -3 -51 -27 -91 -66 -7 -7 -39 -24 -71 -38 -32 -14 -60 -29
-63 -32 -6 -8 -108 -52 -134 -57 -10 -2 -25 -10 -34 -17 -8 -7 -18 -12 -21
-12 -12 2 -51 -19 -51 -28 0 -5 -4 -7 -9 -4 -5 4 -11 1 -13 -6 -3 -7 -39 -12
-104 -14 -184 -5 -208 -4 -329 11 -70 9 -272 10 -330 2 -45 -5 -106 -33 -118
-54 -4 -7 -14 -13 -21 -13 -12 0 -27 -23 -27 -40 0 -3 -7 -12 -14 -20 -7 -8
-14 -19 -16 -25 -4 -22 -11 -41 -26 -68 -8 -16 -17 -43 -20 -60 -3 -17 -13
-37 -24 -45 -10 -7 -19 -18 -19 -24 0 -7 -19 -43 -41 -80 -23 -38 -39 -71 -36
-75 4 -3 -3 -14 -14 -24 -11 -9 -21 -21 -21 -26 -1 -4 -10 -20 -21 -36 -12
-15 -22 -36 -24 -47 -2 -11 -15 -43 -29 -71 -14 -28 -23 -57 -20 -64 2 -7 0
-17 -6 -23 -17 -17 -17 -104 0 -124 10 -12 13 -30 9 -59 -6 -43 8 -69 35 -69
7 1 29 14 48 30 19 17 38 30 43 30 5 0 21 9 36 20 24 16 186 102 201 106 31 7
92 44 101 61 14 27 47 33 76 15 18 -11 26 -11 51 2 16 8 47 16 68 17 22 1 44
6 49 9 14 10 89 34 98 32 4 -1 7 3 7 8 0 6 12 10 28 10 15 0 51 7 81 15 30 8
58 12 63 9 4 -3 8 -1 8 4 0 9 80 29 135 34 41 3 55 -8 55 -45 0 -25 -12 -43
-65 -95 -36 -34 -80 -69 -98 -77 -33 -14 -96 -75 -115 -111 -22 -42 -30 -99
-15 -112 7 -7 11 -17 8 -22 -6 -10 55 -60 73 -60 6 0 16 -9 22 -20 6 -11 14
-19 18 -18 4 1 26 -8 49 -20 23 -12 49 -22 58 -22 8 0 15 -5 15 -11 0 -5 4 -8
9 -4 5 3 12 1 15 -4 4 -5 29 -17 56 -26 38 -12 52 -23 56 -41 14 -55 -18 -127
-83 -191 -13 -12 -23 -27 -23 -33 0 -5 -5 -10 -11 -10 -13 0 -67 -49 -123
-111 -26 -29 -66 -111 -60 -121 3 -5 0 -8 -5 -8 -6 0 -11 -18 -11 -40 0 -39
-1 -40 -27 -34 -16 3 -45 17 -65 30 -21 13 -38 22 -38 19 0 -6 -62 26 -70 36
-3 4 -30 9 -60 12 -30 4 -73 10 -95 14 -62 12 -259 6 -305 -9 -8 -3 -33 -11
-55 -17 -22 -7 -49 -16 -60 -21 -11 -5 -44 -19 -72 -31 -29 -12 -53 -25 -53
-30 0 -5 -7 -9 -15 -9 -9 0 -18 -7 -21 -15 -4 -8 -10 -15 -14 -15 -16 0 -190
-181 -209 -218 -10 -20 -28 -46 -40 -56 -12 -11 -21 -28 -21 -38 0 -10 -6 -21
-14 -24 -8 -3 -12 -12 -9 -20 3 -8 0 -21 -7 -29 -17 -20 -38 -193 -35 -277 4
-87 23 -173 45 -211 18 -30 17 -53 -4 -72 -24 -20 -55 -72 -60 -98 -8 -45 -18
-70 -33 -86 -8 -7 -12 -22 -10 -32 3 -10 -2 -20 -9 -23 -8 -3 -14 -9 -13 -13
1 -4 0 -10 -1 -13 -3 -8 -8 -39 -21 -125 -6 -44 -15 -89 -20 -100 -13 -28 -19
-209 -8 -215 5 -3 11 -28 13 -55 5 -60 10 -82 19 -91 4 -4 7 -16 7 -27 0 -31
19 -86 51 -148 16 -31 29 -66 29 -77 0 -12 6 -25 13 -29 7 -4 35 -36 61 -71
41 -54 82 -92 187 -176 13 -10 38 -24 54 -32 46 -21 80 -51 80 -71 0 -17 -51
-72 -67 -73 -5 0 -8 -6 -8 -14 0 -8 -8 -21 -19 -28 -19 -13 -81 -136 -81 -161
0 -7 -3 -17 -7 -21 -5 -4 -9 -12 -9 -17 -1 -5 -2 -10 -4 -11 -1 -2 -3 -11 -5
-20 -2 -10 -10 -24 -18 -33 -14 -14 -25 -50 -26 -85 0 -8 -4 -35 -9 -60 -10
-49 -9 -215 2 -269 4 -18 15 -49 25 -70 10 -20 17 -44 16 -53 -2 -10 1 -20 6
-24 5 -3 7 -10 4 -15 -4 -5 -2 -9 2 -9 5 0 10 -11 11 -25 2 -23 12 -46 41 -95
5 -8 15 -30 22 -49 7 -19 25 -46 39 -60 45 -45 90 -108 82 -116 -4 -5 -2 -5 5
-2 6 4 13 4 15 -1 1 -4 28 -28 58 -52 30 -25 57 -48 58 -53 2 -4 21 -16 42
-27 22 -11 55 -31 76 -45 20 -13 40 -22 45 -19 5 3 9 0 9 -7 0 -7 3 -9 7 -6 3
4 11 3 17 -1 6 -5 34 -16 61 -26 28 -10 57 -20 65 -23 8 -3 24 -8 35 -10 11
-2 33 -8 48 -15 45 -18 278 -15 367 5 146 33 195 46 198 57 6 18 32 11 32 -9
0 -11 7 -27 16 -35 8 -9 17 -25 19 -37 2 -11 7 -29 10 -40 5 -15 2 -19 -14
-19 -32 0 -35 -1 -48 -12 -7 -6 -13 -8 -13 -5 0 11 -131 -32 -159 -52 -16 -12
-33 -21 -39 -21 -5 0 -20 -10 -34 -22 -14 -13 -45 -39 -69 -58 -64 -51 -68
-54 -139 -120 -36 -33 -65 -66 -66 -73 0 -6 -18 -39 -39 -72 -22 -33 -41 -69
-42 -80 -2 -10 -8 -22 -13 -25 -12 -7 -29 -55 -36 -99 -3 -20 -8 -43 -11 -51
-8 -21 -9 -171 -1 -176 4 -3 5 -13 3 -24 -2 -11 0 -22 5 -25 4 -3 6 -18 4 -34
-4 -21 7 -51 36 -105 22 -42 40 -86 40 -97 0 -12 -18 -39 -40 -61 -38 -38 -46
-51 -95 -148 -13 -25 -42 -62 -64 -83 -23 -21 -41 -45 -41 -52 0 -7 -7 -18
-15 -25 -8 -7 -17 -27 -21 -46 -3 -19 -10 -34 -14 -34 -5 0 -7 -8 -6 -17 2
-10 -8 -39 -22 -65 -14 -27 -26 -61 -28 -76 -1 -15 -3 -27 -4 -27 -3 0 -11
-38 -21 -95 -12 -71 -10 -319 3 -367 5 -21 11 -49 12 -63 2 -14 16 -54 33 -90
17 -36 34 -76 38 -90 4 -14 12 -31 18 -39 6 -7 16 -21 22 -31 32 -58 134 -180
174 -210 25 -19 48 -37 51 -40 3 -3 31 -23 62 -44 32 -21 66 -47 78 -58 11
-10 20 -16 20 -13 0 3 10 -1 22 -9 12 -9 35 -16 50 -16 15 0 30 -5 33 -10 4
-6 10 -8 15 -5 5 3 11 1 15 -5 3 -5 13 -10 21 -10 7 0 42 -13 76 -29 35 -16
69 -31 77 -33 11 -3 15 -37 17 -164 2 -136 5 -167 24 -214 12 -30 21 -56 21
-58 -5 -11 17 -63 37 -90 14 -18 22 -35 19 -39 -10 -9 22 -76 47 -98 23 -20
26 -25 26 -45 0 -5 6 -10 13 -10 7 0 20 -8 28 -17 25 -27 58 -53 69 -53 6 0
10 -4 10 -9 0 -10 69 -37 83 -33 4 1 7 -2 7 -7 0 -16 156 -49 235 -51 55 -1
40 10 219 -153 44 -40 84 -77 90 -82 10 -9 51 -26 229 -95 26 -10 47 -16 47
-13 0 3 6 1 13 -5 6 -5 24 -9 39 -7 16 2 30 -1 33 -5 3 -5 12 -7 20 -3 8 3 15
0 15 -6 0 -6 3 -10 8 -9 4 2 39 -3 77 -10 39 -6 92 -14 120 -16 47 -3 222 18
255 31 8 4 17 7 20 7 3 1 15 7 27 14 12 7 43 15 67 18 55 8 56 5 60 -98 3 -77
32 -235 46 -253 8 -10 22 -65 25 -99 1 -11 7 -22 13 -24 7 -2 12 -10 12 -18 0
-8 4 -14 9 -14 5 0 14 -14 20 -30 5 -17 15 -30 20 -30 6 0 11 -6 11 -14 0 -7
18 -34 40 -59 22 -25 40 -50 40 -56 0 -6 9 -11 20 -11 11 0 20 -4 20 -9 0 -6
26 -27 58 -48 31 -20 60 -41 63 -46 3 -5 8 -8 10 -8 13 2 49 -13 49 -20 0 -13
120 -68 175 -79 28 -6 56 -12 63 -13 7 -2 17 -8 23 -14 6 -6 18 -9 25 -6 8 3
14 1 14 -3 0 -5 19 -10 42 -12 23 -1 47 -7 54 -13 20 -17 260 5 295 27 6 3 30
7 54 9 23 2 63 13 88 24 25 12 52 21 60 21 7 0 17 3 21 7 3 4 12 8 19 9 34 6
169 103 211 152 6 7 18 21 27 30 39 40 172 209 179 227 4 11 24 47 44 79 19
32 33 63 30 67 -3 5 -1 9 3 9 5 0 9 8 10 18 2 24 10 77 13 77 1 0 3 18 4 40 2
22 10 66 18 98 9 31 13 57 10 57 -2 0 0 6 6 13 6 7 8 60 5 132 -2 66 -4 135
-5 153 0 37 16 62 43 62 9 0 24 6 31 13 7 7 26 22 42 35 16 12 26 22 22 22 -4
0 10 18 31 40 20 23 39 52 41 66 1 14 14 44 28 66 16 25 27 60 30 96 3 31 9
61 13 67 4 5 6 53 6 105 -1 52 2 100 7 106 4 6 21 10 38 9 17 -1 35 4 41 12 6
7 31 13 55 13 23 0 45 4 48 9 5 8 58 22 79 21 4 -1 53 23 108 52 83 44 118 69
199 150 54 54 102 107 106 120 3 12 13 28 20 36 8 7 12 18 8 23 -3 5 12 44 32
86 21 43 39 82 41 88 1 5 9 28 17 50 14 38 41 58 94 69 9 1 31 9 47 15 49 21
109 42 129 46 10 3 25 14 33 25 8 11 20 20 27 20 7 0 25 9 40 21 14 11 26 18
26 14 0 -17 64 33 130 101 86 89 93 100 136 200 8 17 20 37 29 44 8 7 15 20
15 29 0 9 4 21 8 27 4 5 13 25 19 44 10 31 19 68 54 219 17 75 22 232 10 311
-7 41 -14 89 -17 105 -2 17 -7 37 -11 45 -3 8 -7 18 -7 22 -1 3 -4 10 -8 14
-5 4 -8 17 -8 28 0 12 -13 47 -29 78 -16 31 -26 59 -23 63 4 4 -1 11 -11 16
-9 6 -25 27 -35 47 -32 66 -58 105 -94 144 -10 10 -18 21 -18 26 0 11 -76 82
-88 82 -6 0 -15 6 -19 14 -4 7 -27 23 -50 35 -23 11 -44 25 -47 30 -9 14 -183
100 -190 94 -3 -4 -6 -2 -6 3 0 6 -10 10 -22 11 -13 0 -41 3 -63 6 -101 14
-196 17 -270 7 -175 -21 -178 -21 -187 20 -2 8 -20 33 -40 55 -21 22 -49 55
-64 73 -14 17 -30 32 -35 32 -5 0 -21 13 -36 29 -16 16 -50 47 -78 70 -50 41
-50 42 -57 114 -10 102 -15 134 -24 149 -5 7 -9 20 -11 28 -2 15 -17 50 -38
90 -8 14 -24 45 -36 70 -11 25 -28 53 -37 63 -8 9 -12 17 -9 17 4 0 -45 52
-108 115 -63 63 -119 115 -125 115 -5 0 -10 7 -10 15 0 9 14 16 38 20 20 3 64
13 97 23 33 9 63 16 67 14 10 -3 115 25 131 35 6 4 23 8 37 8 14 0 35 6 47 13
12 7 29 12 38 12 9 0 32 7 50 16 54 25 66 17 118 -86 27 -52 55 -102 63 -111
8 -8 14 -21 14 -27 0 -13 40 -17 40 -4 0 4 13 21 28 39 15 17 34 44 43 61 27
48 78 27 117 -49 20 -39 92 -109 112 -109 5 0 10 -5 10 -10 0 -6 3 -9 8 -8 4
1 26 -10 48 -25 23 -16 51 -29 63 -30 11 -1 21 -4 21 -8 0 -4 8 -6 18 -4 9 2
23 4 30 4 8 1 12 21 12 64 0 36 5 68 12 75 15 15 54 16 63 2 3 -5 17 -10 30
-10 13 0 26 -4 30 -9 5 -9 98 -45 120 -47 6 0 28 -6 50 -12 55 -16 110 -15
145 3 26 14 30 21 30 59 0 31 5 46 16 50 26 10 32 7 71 -30 53 -50 118 -80
171 -77 51 2 119 42 127 76 12 52 -27 230 -64 290 -12 19 -21 50 -21 70 0 20
-5 39 -10 42 -6 4 -8 10 -6 14 3 4 -3 19 -12 32 -18 25 -42 85 -42 106 0 7
-16 40 -36 73 -20 34 -37 69 -39 78 -2 10 -4 18 -5 20 -2 1 -3 5 -4 10 -7 25
-39 87 -49 94 -15 9 -3 21 25 22 13 1 29 5 36 9 13 9 17 49 5 61 -4 4 -8 23
-9 41 -1 19 -9 42 -18 51 -9 8 -16 21 -16 28 0 13 -64 102 -90 124 -8 7 -36
27 -62 43 -40 25 -48 36 -48 61 0 55 17 61 184 70 160 8 187 11 257 28 24 6
55 14 69 17 14 3 37 15 53 25 15 11 27 16 27 12 0 -3 7 -1 15 6 8 7 15 10 15
6 0 -7 77 30 98 47 8 6 23 12 35 14 44 7 46 17 40 151 -3 70 -9 132 -14 138
-5 6 -8 22 -8 35 4 74 -13 165 -41 220 -16 33 -30 62 -30 64 0 3 11 5 25 5 25
0 37 8 100 68 40 39 43 52 15 77 -12 11 -31 36 -42 57 -12 21 -26 38 -30 38
-5 0 -7 4 -4 9 3 4 -8 23 -24 41 -17 19 -30 38 -30 44 0 5 -7 17 -16 27 -14
16 -10 17 70 14 48 -1 86 2 86 7 0 5 5 6 10 3 6 -3 10 1 10 9 0 9 4 16 9 16
13 0 8 26 -10 47 -8 10 -21 30 -28 44 -7 14 -27 32 -45 39 -18 7 -56 41 -87
78 -30 36 -59 70 -64 76 -6 6 -22 27 -35 46 -37 52 -51 69 -89 104 -19 17 -40
37 -47 44 -8 7 -14 11 -14 8 0 -3 -22 8 -50 25 -31 19 -60 29 -77 28 -16 -2
-33 0 -38 3 -11 7 -61 4 -131 -8 -55 -8 -98 7 -158 56 -26 22 -52 38 -56 35
-4 -3 -13 2 -20 10 -7 8 -19 15 -26 15 -8 0 -14 5 -14 10 0 6 -5 10 -12 10 -6
0 -18 7 -27 15 -9 8 -32 28 -51 44 -32 28 -33 30 -12 31 12 0 22 -4 22 -8 0
-5 6 -9 13 -10 40 -5 170 -33 179 -38 6 -4 24 -8 40 -10 16 -2 39 -9 51 -16
12 -6 31 -13 42 -14 11 -2 45 -8 75 -13 54 -11 132 -7 200 9 19 5 73 10 120
11 47 1 94 6 105 12 11 6 26 10 34 8 7 -1 24 8 37 20 13 12 33 23 46 25 13 2
34 5 48 9 14 3 39 8 55 10 17 3 48 14 70 24 22 10 57 24 78 32 36 13 38 15 32
49 -5 30 -2 39 22 62 15 14 37 29 48 32 39 13 120 165 140 263 6 29 2 37 -24
59 -40 34 -39 59 5 102 39 37 52 64 59 120 2 20 8 38 12 39 5 2 7 21 5 44 -3
32 1 46 18 64 l23 24 -32 30 c-17 16 -31 35 -31 42 0 7 19 29 42 48 60 52 129
121 160 161 27 35 39 99 18 101 -10 2 -28 5 -33 8 -2 0 22 27 53 59 52 55 96
144 94 191 -2 45 -17 70 -45 76 -16 4 -29 10 -29 15 0 5 -8 11 -18 14 -10 4
-43 29 -72 57 -30 28 -71 63 -90 77 -68 52 -72 61 -45 113 27 50 11 92 -51
139 -29 22 -58 40 -64 40 -5 0 -10 4 -10 9 0 5 -13 14 -30 21 -16 7 -30 16
-30 21 0 10 -82 49 -102 49 -7 0 -28 9 -45 20 -18 11 -33 17 -33 14 0 -3 -7 1
-15 10 -19 19 -19 45 0 66 12 13 13 20 2 34 -7 9 -21 19 -32 21 -11 2 -20 4
-20 5 0 1 -34 3 -75 5 -41 1 -95 5 -118 9 -31 4 -53 2 -75 -9 -16 -8 -35 -15
-42 -15 -7 0 -20 -9 -30 -20 -10 -11 -21 -18 -24 -15 -4 2 -31 -10 -61 -26
-43 -23 -103 -47 -140 -54 -3 0 -17 -9 -32 -18 -21 -15 -38 -17 -86 -11 -66 7
-90 -1 -135 -47 -15 -16 -29 -29 -32 -29 -9 0 -135 -132 -135 -141 0 -5 -15
-26 -34 -46 -19 -21 -35 -42 -36 -48 -6 -27 -20 -55 -28 -55 -4 0 -15 -13 -24
-28 -10 -16 -23 -29 -30 -30 -7 0 -30 -3 -51 -5 -32 -4 -40 0 -57 23 -17 24
-18 29 -4 55 20 38 132 145 169 160 17 7 46 29 65 47 19 19 54 49 76 66 135
104 263 270 277 359 3 17 19 61 36 97 18 36 29 71 26 76 -3 6 -2 10 2 10 5 0
9 8 10 18 1 9 3 37 6 62 2 25 -1 54 -7 65 -6 11 -9 24 -8 28 1 5 -2 24 -7 43
-5 18 -6 36 -3 38 4 2 6 30 5 61 0 31 2 69 7 85 5 18 4 32 -3 39 -6 6 -8 11
-3 11 4 0 1 7 -8 15 -10 11 -21 13 -38 6 -15 -6 -27 -5 -34 3 -14 15 -26 154
-13 161 5 4 9 15 9 26 0 27 -30 121 -45 139 -7 8 -19 30 -29 49 -42 88 -117
157 -150 139 -22 -12 -125 -12 -156 0 -14 6 -38 23 -55 39 -27 26 -36 28 -115
30 -47 1 -96 2 -110 3 -34 3 -76 -7 -130 -31 -24 -11 -60 -22 -80 -26 -44 -7
-52 -9 -70 -16 -36 -16 -117 -37 -142 -37 -15 0 -33 -6 -40 -12 -15 -15 -26
-18 -84 -28 -23 -3 -66 -19 -96 -33 -30 -15 -62 -27 -70 -27 -19 0 -45 30 -43
50 2 28 -61 105 -105 128 -38 20 -47 22 -69 11 -36 -18 -131 -120 -131 -140 0
-10 -5 -19 -11 -21 -6 -2 -12 -18 -13 -35 -2 -18 -9 -39 -16 -48 -15 -19 -59
-20 -66 -2 -5 15 -19 18 -83 17 -41 0 -81 -21 -81 -41 0 -4 -5 -20 -12 -36 -6
-15 -12 -32 -13 -38 0 -5 -6 -23 -13 -38 -7 -16 -12 -38 -12 -50 0 -12 -13
-47 -30 -78 -16 -31 -30 -73 -32 -94 -2 -39 -23 -55 -73 -55 -24 0 -85 -28
-97 -45 -7 -9 -5 24 5 99 3 15 9 31 15 35 6 3 13 18 17 33 4 14 15 35 26 47
10 11 19 26 19 34 0 8 8 25 18 38 16 22 44 77 44 89 0 10 37 56 88 110 29 30
68 74 87 98 20 23 42 42 49 42 8 0 22 9 31 19 9 11 20 18 25 15 4 -3 11 2 14
10 3 9 12 16 18 16 7 0 30 20 51 45 22 24 55 51 75 60 19 8 51 25 70 36 25 15
57 23 110 25 41 3 89 6 105 9 62 9 164 43 190 63 45 36 113 50 255 55 124 5
154 10 231 38 42 16 32 46 -26 79 -65 37 -119 63 -175 85 -25 9 -60 23 -78 31
-18 8 -41 14 -51 14 -10 0 -24 7 -31 15 -7 8 -18 15 -24 15 -12 0 -41 22 -116
85 -19 17 -47 37 -62 44 -16 8 -28 18 -28 23 0 5 -4 7 -9 4 -4 -3 -25 4 -47
14 -21 11 -43 20 -50 20 -6 0 -17 6 -23 14 -7 8 -27 18 -44 22 -18 3 -36 9
-42 13 -5 3 -21 6 -35 7 -14 1 -32 5 -41 8 -8 4 -17 4 -20 2z m-590 -1012 c-6
-8 -17 -14 -23 -14 -13 0 -50 -55 -61 -90 -7 -25 -49 -105 -78 -151 -8 -13
-13 -32 -12 -41 2 -10 0 -18 -5 -18 -5 0 -7 -8 -6 -17 2 -10 -3 -36 -10 -58
-7 -22 -18 -65 -25 -95 -20 -92 -51 -132 -87 -109 -16 10 -70 90 -72 107 -1 4
-7 14 -14 22 -7 8 -16 27 -20 43 -5 23 -12 27 -41 27 -27 0 -40 -7 -62 -35
-31 -39 -38 -41 -59 -20 -14 14 -51 133 -43 138 59 37 97 66 107 80 7 9 20 17
29 17 9 0 30 10 47 23 29 22 55 35 66 34 3 -1 30 15 60 34 82 51 160 91 160
82 0 -4 4 -3 8 4 4 6 19 14 33 16 15 3 44 14 65 25 42 21 63 19 43 -4z m-279
-673 c5 -11 10 -45 10 -75 0 -31 4 -56 9 -56 5 0 8 -12 6 -27 -2 -16 2 -37 9
-48 6 -11 12 -45 12 -75 1 -30 7 -73 13 -95 6 -22 13 -85 16 -140 2 -55 7
-118 11 -139 3 -22 8 -63 10 -90 5 -51 9 -87 14 -96 1 -3 1 -15 0 -27 -1 -13
8 -36 19 -52 37 -52 21 -94 -25 -64 -14 9 -20 21 -17 32 3 10 -5 38 -17 62
-12 23 -24 58 -25 76 -2 18 -7 38 -12 45 -4 7 -8 65 -9 128 -2 158 -11 228
-35 267 -37 59 -43 343 -8 343 5 0 4 11 -1 25 -11 30 4 34 20 6z m-2098 -753
c28 -33 40 -67 39 -115 0 -24 3 -43 7 -43 4 0 8 -16 9 -35 2 -42 -11 -45 -29
-8 -15 31 -81 73 -115 73 -13 0 -23 5 -23 11 0 5 -4 7 -10 4 -5 -3 -10 -2 -10
3 0 5 -6 9 -12 10 -46 6 -79 16 -89 28 -9 11 -8 14 4 14 8 0 17 4 19 10 2 5
13 11 25 13 12 2 26 6 29 10 4 4 17 7 29 7 12 0 25 3 29 8 6 6 59 28 75 31 2
1 13 -9 23 -21z"/>
<path d="M3905 10520 c-3 -5 -2 -10 4 -10 5 0 13 5 16 10 3 6 2 10 -4 10 -5 0
-13 -4 -16 -10z"/>
<path d="M11070 10089 c0 -5 5 -7 10 -4 6 3 10 8 10 11 0 2 -4 4 -10 4 -5 0
-10 -5 -10 -11z"/>
<path d="M8997 2473 c-4 -3 -7 -11 -7 -17 0 -6 5 -5 12 2 6 6 9 14 7 17 -3 3
-9 2 -12 -2z"/>
</g>
</svg>
